<mxfile host="app.diagrams.net" modified="2021-11-15T00:48:21.061Z" agent="5.0 (Macintosh; Intel Mac OS X 10_15_7) AppleWebKit/537.36 (KHTML, like Gecko) Chrome/91.0.4472.114 Safari/537.36" etag="uKM0xEeKZ0-lrLQT2BFs" version="15.6.6" type="github" pages="2">
  <diagram id="QxWrpHbJSx02NSNL3kXk" name="Page-1">
    <mxGraphModel dx="955" dy="500" grid="1" gridSize="10" guides="1" tooltips="1" connect="1" arrows="1" fold="1" page="1" pageScale="1" pageWidth="850" pageHeight="1100" math="0" shadow="0">
      <root>
        <mxCell id="0" />
        <mxCell id="1" parent="0" />
        <mxCell id="arPpOaJSbTXaJ0a4Uy7O-32" style="edgeStyle=orthogonalEdgeStyle;rounded=0;orthogonalLoop=1;jettySize=auto;html=1;" parent="1" source="arPpOaJSbTXaJ0a4Uy7O-12" target="arPpOaJSbTXaJ0a4Uy7O-17" edge="1">
          <mxGeometry relative="1" as="geometry" />
        </mxCell>
        <mxCell id="arPpOaJSbTXaJ0a4Uy7O-12" value="Blob Storage&lt;br&gt;Containers" style="aspect=fixed;html=1;points=[];align=center;image;fontSize=12;image=img/lib/azure2/general/Blob_Block.svg;" parent="1" vertex="1">
          <mxGeometry x="310" y="80" width="65" height="52" as="geometry" />
        </mxCell>
        <mxCell id="arPpOaJSbTXaJ0a4Uy7O-34" style="edgeStyle=orthogonalEdgeStyle;rounded=0;orthogonalLoop=1;jettySize=auto;html=1;entryX=0;entryY=0.5;entryDx=0;entryDy=0;entryPerimeter=0;dashed=1;" parent="1" source="arPpOaJSbTXaJ0a4Uy7O-13" target="arPpOaJSbTXaJ0a4Uy7O-21" edge="1">
          <mxGeometry relative="1" as="geometry" />
        </mxCell>
        <mxCell id="arPpOaJSbTXaJ0a4Uy7O-56" style="edgeStyle=orthogonalEdgeStyle;orthogonalLoop=1;jettySize=auto;html=1;strokeColor=none;curved=1;" parent="1" source="arPpOaJSbTXaJ0a4Uy7O-13" target="arPpOaJSbTXaJ0a4Uy7O-46" edge="1">
          <mxGeometry relative="1" as="geometry">
            <Array as="points">
              <mxPoint x="342" y="210" />
              <mxPoint x="796" y="210" />
            </Array>
          </mxGeometry>
        </mxCell>
        <mxCell id="arPpOaJSbTXaJ0a4Uy7O-13" value="Provisioning&lt;br&gt;Flow" style="aspect=fixed;html=1;points=[];align=center;image;fontSize=12;image=img/lib/azure2/general/Input_Output.svg;" parent="1" vertex="1">
          <mxGeometry x="310" y="266.5" width="64" height="55.00000000000001" as="geometry" />
        </mxCell>
        <mxCell id="arPpOaJSbTXaJ0a4Uy7O-38" style="edgeStyle=orthogonalEdgeStyle;rounded=0;orthogonalLoop=1;jettySize=auto;html=1;" parent="1" source="arPpOaJSbTXaJ0a4Uy7O-14" target="arPpOaJSbTXaJ0a4Uy7O-21" edge="1">
          <mxGeometry relative="1" as="geometry" />
        </mxCell>
        <mxCell id="arPpOaJSbTXaJ0a4Uy7O-14" value="Virtual Network" style="aspect=fixed;html=1;points=[];align=center;image;fontSize=12;image=img/lib/azure2/networking/Virtual_Networks.svg;" parent="1" vertex="1">
          <mxGeometry x="540" y="410" width="67" height="40" as="geometry" />
        </mxCell>
        <mxCell id="arPpOaJSbTXaJ0a4Uy7O-29" style="edgeStyle=orthogonalEdgeStyle;rounded=0;orthogonalLoop=1;jettySize=auto;html=1;" parent="1" source="arPpOaJSbTXaJ0a4Uy7O-15" target="arPpOaJSbTXaJ0a4Uy7O-13" edge="1">
          <mxGeometry relative="1" as="geometry" />
        </mxCell>
        <mxCell id="arPpOaJSbTXaJ0a4Uy7O-43" value="Terraform&lt;br&gt;Apply" style="edgeLabel;html=1;align=center;verticalAlign=middle;resizable=0;points=[];" parent="arPpOaJSbTXaJ0a4Uy7O-29" vertex="1" connectable="0">
          <mxGeometry x="-0.0704" y="-4" relative="1" as="geometry">
            <mxPoint y="-4" as="offset" />
          </mxGeometry>
        </mxCell>
        <mxCell id="arPpOaJSbTXaJ0a4Uy7O-15" value="Bastion&lt;br&gt;Host" style="aspect=fixed;html=1;points=[];align=center;image;fontSize=12;image=img/lib/azure2/preview/Azure_Cloud_Shell.svg;" parent="1" vertex="1">
          <mxGeometry x="100" y="270" width="68" height="48" as="geometry" />
        </mxCell>
        <mxCell id="arPpOaJSbTXaJ0a4Uy7O-16" value="Keys Vault" style="aspect=fixed;html=1;points=[];align=center;image;fontSize=12;image=img/lib/azure2/security/Key_Vaults.svg;" parent="1" vertex="1">
          <mxGeometry x="650" y="616" width="68" height="68" as="geometry" />
        </mxCell>
        <mxCell id="arPpOaJSbTXaJ0a4Uy7O-17" value="Storage&lt;br&gt;Accounts" style="aspect=fixed;html=1;points=[];align=center;image;fontSize=12;image=img/lib/azure2/storage/Storage_Accounts_Classic.svg;" parent="1" vertex="1">
          <mxGeometry x="101.5" y="80" width="65" height="52" as="geometry" />
        </mxCell>
        <mxCell id="arPpOaJSbTXaJ0a4Uy7O-26" style="edgeStyle=orthogonalEdgeStyle;rounded=0;orthogonalLoop=1;jettySize=auto;html=1;entryX=0.485;entryY=1.025;entryDx=0;entryDy=0;entryPerimeter=0;" parent="1" target="arPpOaJSbTXaJ0a4Uy7O-14" edge="1">
          <mxGeometry relative="1" as="geometry">
            <mxPoint x="650" y="652" as="sourcePoint" />
            <mxPoint x="674" y="380" as="targetPoint" />
          </mxGeometry>
        </mxCell>
        <mxCell id="arPpOaJSbTXaJ0a4Uy7O-27" value="kubectl" style="edgeLabel;html=1;align=center;verticalAlign=middle;resizable=0;points=[];" parent="arPpOaJSbTXaJ0a4Uy7O-26" vertex="1" connectable="0">
          <mxGeometry x="-0.2125" y="3" relative="1" as="geometry">
            <mxPoint as="offset" />
          </mxGeometry>
        </mxCell>
        <mxCell id="arPpOaJSbTXaJ0a4Uy7O-20" value="Containers&lt;br&gt;Registry" style="aspect=fixed;html=1;points=[];align=center;image;fontSize=12;image=img/lib/azure2/containers/Container_Registries.svg;" parent="1" vertex="1">
          <mxGeometry x="534" y="80" width="68" height="61" as="geometry" />
        </mxCell>
        <mxCell id="arPpOaJSbTXaJ0a4Uy7O-37" style="edgeStyle=orthogonalEdgeStyle;rounded=0;orthogonalLoop=1;jettySize=auto;html=1;entryX=0.588;entryY=0.984;entryDx=0;entryDy=0;entryPerimeter=0;" parent="1" source="arPpOaJSbTXaJ0a4Uy7O-21" target="arPpOaJSbTXaJ0a4Uy7O-20" edge="1">
          <mxGeometry relative="1" as="geometry" />
        </mxCell>
        <mxCell id="arPpOaJSbTXaJ0a4Uy7O-40" value="docker&lt;br&gt;pull" style="edgeLabel;html=1;align=center;verticalAlign=middle;resizable=0;points=[];" parent="arPpOaJSbTXaJ0a4Uy7O-37" vertex="1" connectable="0">
          <mxGeometry x="-0.0966" relative="1" as="geometry">
            <mxPoint as="offset" />
          </mxGeometry>
        </mxCell>
        <mxCell id="arPpOaJSbTXaJ0a4Uy7O-21" value="AKS&lt;br&gt;Cluster" style="aspect=fixed;html=1;points=[];align=center;image;fontSize=12;image=img/lib/azure2/containers/Kubernetes_Services.svg;" parent="1" vertex="1">
          <mxGeometry x="540" y="264" width="68" height="60" as="geometry" />
        </mxCell>
        <mxCell id="arPpOaJSbTXaJ0a4Uy7O-25" style="edgeStyle=orthogonalEdgeStyle;rounded=0;orthogonalLoop=1;jettySize=auto;html=1;" parent="1" source="arPpOaJSbTXaJ0a4Uy7O-24" edge="1">
          <mxGeometry relative="1" as="geometry">
            <mxPoint x="650" y="652" as="targetPoint" />
          </mxGeometry>
        </mxCell>
        <mxCell id="arPpOaJSbTXaJ0a4Uy7O-24" value="AZ AD roles&lt;br&gt;and administrators" style="aspect=fixed;html=1;points=[];align=center;image;fontSize=12;image=img/lib/azure2/intune/Azure_AD_Roles_and_Administrators.svg;" parent="1" vertex="1">
          <mxGeometry x="350" y="620" width="64" height="64" as="geometry" />
        </mxCell>
        <mxCell id="arPpOaJSbTXaJ0a4Uy7O-28" value="Security groups" style="aspect=fixed;html=1;points=[];align=center;image;fontSize=12;image=img/lib/azure2/networking/Network_Security_Groups.svg;" parent="1" vertex="1">
          <mxGeometry x="773.77" y="403" width="44.47" height="54" as="geometry" />
        </mxCell>
        <mxCell id="arPpOaJSbTXaJ0a4Uy7O-31" value="" style="endArrow=classic;html=1;exitX=0.515;exitY=-0.062;exitDx=0;exitDy=0;exitPerimeter=0;" parent="1" source="arPpOaJSbTXaJ0a4Uy7O-15" target="arPpOaJSbTXaJ0a4Uy7O-12" edge="1">
          <mxGeometry width="50" height="50" relative="1" as="geometry">
            <mxPoint x="160" y="250" as="sourcePoint" />
            <mxPoint x="210" y="200" as="targetPoint" />
          </mxGeometry>
        </mxCell>
        <mxCell id="arPpOaJSbTXaJ0a4Uy7O-33" value="Terraform&lt;br&gt;Statefiles" style="edgeLabel;html=1;align=center;verticalAlign=middle;resizable=0;points=[];" parent="arPpOaJSbTXaJ0a4Uy7O-31" vertex="1" connectable="0">
          <mxGeometry x="0.1106" y="-3" relative="1" as="geometry">
            <mxPoint as="offset" />
          </mxGeometry>
        </mxCell>
        <mxCell id="arPpOaJSbTXaJ0a4Uy7O-35" value="" style="endArrow=classic;html=1;exitX=0.625;exitY=0.064;exitDx=0;exitDy=0;exitPerimeter=0;entryX=0;entryY=0.525;entryDx=0;entryDy=0;entryPerimeter=0;dashed=1;" parent="1" source="arPpOaJSbTXaJ0a4Uy7O-13" target="arPpOaJSbTXaJ0a4Uy7O-20" edge="1">
          <mxGeometry width="50" height="50" relative="1" as="geometry">
            <mxPoint x="410" y="230" as="sourcePoint" />
            <mxPoint x="460" y="180" as="targetPoint" />
          </mxGeometry>
        </mxCell>
        <mxCell id="arPpOaJSbTXaJ0a4Uy7O-36" value="" style="endArrow=classic;html=1;exitX=0.844;exitY=0.991;exitDx=0;exitDy=0;exitPerimeter=0;entryX=-0.015;entryY=0.55;entryDx=0;entryDy=0;entryPerimeter=0;dashed=1;" parent="1" source="arPpOaJSbTXaJ0a4Uy7O-13" target="arPpOaJSbTXaJ0a4Uy7O-14" edge="1">
          <mxGeometry width="50" height="50" relative="1" as="geometry">
            <mxPoint x="380" y="490" as="sourcePoint" />
            <mxPoint x="430" y="440" as="targetPoint" />
          </mxGeometry>
        </mxCell>
        <mxCell id="arPpOaJSbTXaJ0a4Uy7O-45" value="" style="endArrow=classic;html=1;exitX=0.313;exitY=0;exitDx=0;exitDy=0;exitPerimeter=0;" parent="1" source="arPpOaJSbTXaJ0a4Uy7O-24" edge="1">
          <mxGeometry width="50" height="50" relative="1" as="geometry">
            <mxPoint x="300" y="530" as="sourcePoint" />
            <mxPoint x="160" y="320" as="targetPoint" />
          </mxGeometry>
        </mxCell>
        <mxCell id="arPpOaJSbTXaJ0a4Uy7O-51" style="edgeStyle=orthogonalEdgeStyle;rounded=0;orthogonalLoop=1;jettySize=auto;html=1;" parent="1" source="arPpOaJSbTXaJ0a4Uy7O-46" target="arPpOaJSbTXaJ0a4Uy7O-28" edge="1">
          <mxGeometry relative="1" as="geometry" />
        </mxCell>
        <mxCell id="arPpOaJSbTXaJ0a4Uy7O-46" value="Load Balancer" style="aspect=fixed;html=1;points=[];align=center;image;fontSize=12;image=img/lib/azure2/networking/Load_Balancers.svg;" parent="1" vertex="1">
          <mxGeometry x="760" y="258" width="72" height="72" as="geometry" />
        </mxCell>
        <mxCell id="arPpOaJSbTXaJ0a4Uy7O-53" style="edgeStyle=orthogonalEdgeStyle;rounded=0;orthogonalLoop=1;jettySize=auto;html=1;" parent="1" source="arPpOaJSbTXaJ0a4Uy7O-49" target="arPpOaJSbTXaJ0a4Uy7O-46" edge="1">
          <mxGeometry relative="1" as="geometry" />
        </mxCell>
        <mxCell id="arPpOaJSbTXaJ0a4Uy7O-54" value="public&lt;br&gt;access" style="edgeLabel;html=1;align=center;verticalAlign=middle;resizable=0;points=[];" parent="arPpOaJSbTXaJ0a4Uy7O-53" vertex="1" connectable="0">
          <mxGeometry x="0.1313" y="2" relative="1" as="geometry">
            <mxPoint as="offset" />
          </mxGeometry>
        </mxCell>
        <mxCell id="arPpOaJSbTXaJ0a4Uy7O-49" value="" style="aspect=fixed;html=1;points=[];align=center;image;fontSize=12;image=img/lib/azure2/general/Website_Staging.svg;" parent="1" vertex="1">
          <mxGeometry x="1030" y="259" width="64" height="70" as="geometry" />
        </mxCell>
        <mxCell id="arPpOaJSbTXaJ0a4Uy7O-55" value="" style="endArrow=classic;html=1;" parent="1" source="arPpOaJSbTXaJ0a4Uy7O-46" edge="1">
          <mxGeometry width="50" height="50" relative="1" as="geometry">
            <mxPoint x="690" y="350" as="sourcePoint" />
            <mxPoint x="610" y="430" as="targetPoint" />
          </mxGeometry>
        </mxCell>
        <mxCell id="arPpOaJSbTXaJ0a4Uy7O-57" value="" style="endArrow=classic;html=1;dashed=1;" parent="1" source="arPpOaJSbTXaJ0a4Uy7O-13" edge="1">
          <mxGeometry width="50" height="50" relative="1" as="geometry">
            <mxPoint x="460" y="260" as="sourcePoint" />
            <mxPoint x="760" y="294" as="targetPoint" />
            <Array as="points">
              <mxPoint x="580" y="240" />
            </Array>
          </mxGeometry>
        </mxCell>
        <mxCell id="arPpOaJSbTXaJ0a4Uy7O-58" value="" style="endArrow=classic;html=1;dashed=1;entryX=-0.017;entryY=0.315;entryDx=0;entryDy=0;entryPerimeter=0;" parent="1" source="arPpOaJSbTXaJ0a4Uy7O-13" target="arPpOaJSbTXaJ0a4Uy7O-28" edge="1">
          <mxGeometry width="50" height="50" relative="1" as="geometry">
            <mxPoint x="460" y="370" as="sourcePoint" />
            <mxPoint x="510" y="320" as="targetPoint" />
            <Array as="points">
              <mxPoint x="560" y="380" />
            </Array>
          </mxGeometry>
        </mxCell>
        <mxCell id="arPpOaJSbTXaJ0a4Uy7O-59" value="AD Domain&lt;br&gt;Services" style="aspect=fixed;html=1;points=[];align=center;image;fontSize=12;image=img/lib/azure2/identity/Azure_AD_Domain_Services.svg;" parent="1" vertex="1">
          <mxGeometry x="730" y="616" width="70" height="64" as="geometry" />
        </mxCell>
      </root>
    </mxGraphModel>
  </diagram>
  <diagram id="XTCzsETYQ_nK7lsiEKHq" name="Page-2">
    <mxGraphModel dx="1805" dy="1600" grid="1" gridSize="10" guides="1" tooltips="1" connect="1" arrows="1" fold="1" page="1" pageScale="1" pageWidth="850" pageHeight="1100" math="0" shadow="0">
      <root>
        <mxCell id="Ek67fh9RwJqJuXTqJOCP-0" />
        <mxCell id="Ek67fh9RwJqJuXTqJOCP-1" parent="Ek67fh9RwJqJuXTqJOCP-0" />
        <mxCell id="Ek67fh9RwJqJuXTqJOCP-3" value="Azure Cloud" style="points=[[0,0],[0.25,0],[0.5,0],[0.75,0],[1,0],[1,0.25],[1,0.5],[1,0.75],[1,1],[0.75,1],[0.5,1],[0.25,1],[0,1],[0,0.75],[0,0.5],[0,0.25]];outlineConnect=0;gradientColor=none;html=1;whiteSpace=wrap;fontSize=12;fontStyle=0;shape=mxgraph.aws4.group;grIcon=mxgraph.aws4.group_aws_cloud;strokeColor=#232F3E;fillColor=none;verticalAlign=top;align=left;spacingLeft=30;fontColor=#232F3E;dashed=0;" vertex="1" parent="Ek67fh9RwJqJuXTqJOCP-1">
          <mxGeometry x="40" y="20" width="1070" height="730" as="geometry" />
        </mxCell>
        <mxCell id="Ek67fh9RwJqJuXTqJOCP-4" value="Virtual Network" style="fillColor=none;strokeColor=#147EBA;dashed=1;verticalAlign=top;fontStyle=0;fontColor=#147EBA;labelBackgroundColor=default;" vertex="1" parent="Ek67fh9RwJqJuXTqJOCP-1">
          <mxGeometry x="460" y="60" width="410" height="670" as="geometry" />
        </mxCell>
        <mxCell id="Ek67fh9RwJqJuXTqJOCP-11" style="edgeStyle=orthogonalEdgeStyle;rounded=0;orthogonalLoop=1;jettySize=auto;html=1;labelBackgroundColor=default;fontColor=default;strokeColor=default;" edge="1" parent="Ek67fh9RwJqJuXTqJOCP-1">
          <mxGeometry relative="1" as="geometry">
            <mxPoint x="190" y="186" as="sourcePoint" />
            <mxPoint x="290" y="186" as="targetPoint" />
          </mxGeometry>
        </mxCell>
        <mxCell id="Ek67fh9RwJqJuXTqJOCP-5" value="Bastion Machine&lt;br&gt;192.168.2.118" style="aspect=fixed;html=1;points=[];align=center;image;fontSize=12;image=img/lib/azure2/compute/Virtual_Machine.svg;labelBackgroundColor=default;fontColor=default;" vertex="1" parent="Ek67fh9RwJqJuXTqJOCP-1">
          <mxGeometry x="120" y="160" width="69" height="64" as="geometry" />
        </mxCell>
        <mxCell id="Ek67fh9RwJqJuXTqJOCP-24" style="edgeStyle=orthogonalEdgeStyle;rounded=0;orthogonalLoop=1;jettySize=auto;html=1;labelBackgroundColor=default;fontColor=default;strokeColor=default;" edge="1" parent="Ek67fh9RwJqJuXTqJOCP-1" source="Ek67fh9RwJqJuXTqJOCP-7" target="Ek67fh9RwJqJuXTqJOCP-16">
          <mxGeometry relative="1" as="geometry">
            <Array as="points">
              <mxPoint x="250" y="200" />
              <mxPoint x="250" y="400" />
              <mxPoint x="185" y="400" />
            </Array>
          </mxGeometry>
        </mxCell>
        <mxCell id="Ek67fh9RwJqJuXTqJOCP-25" value="Store&lt;br&gt;/&lt;br&gt;Retrieve" style="edgeLabel;html=1;align=center;verticalAlign=middle;resizable=0;points=[];fontColor=default;" vertex="1" connectable="0" parent="Ek67fh9RwJqJuXTqJOCP-24">
          <mxGeometry x="-0.4585" relative="1" as="geometry">
            <mxPoint as="offset" />
          </mxGeometry>
        </mxCell>
        <mxCell id="Ek67fh9RwJqJuXTqJOCP-7" value="Terraform&lt;br&gt;Provisioner&lt;br&gt;Scripts" style="aspect=fixed;html=1;points=[];align=center;image;fontSize=12;image=img/lib/azure2/general/Powershell.svg;labelBackgroundColor=default;fontColor=default;" vertex="1" parent="Ek67fh9RwJqJuXTqJOCP-1">
          <mxGeometry x="290" y="160" width="65" height="52" as="geometry" />
        </mxCell>
        <mxCell id="Ek67fh9RwJqJuXTqJOCP-9" style="edgeStyle=orthogonalEdgeStyle;rounded=0;orthogonalLoop=1;jettySize=auto;html=1;entryX=0.423;entryY=0;entryDx=0;entryDy=0;entryPerimeter=0;fontColor=default;strokeColor=default;labelBackgroundColor=default;" edge="1" parent="Ek67fh9RwJqJuXTqJOCP-1" source="Ek67fh9RwJqJuXTqJOCP-8" target="Ek67fh9RwJqJuXTqJOCP-7">
          <mxGeometry relative="1" as="geometry" />
        </mxCell>
        <mxCell id="Ek67fh9RwJqJuXTqJOCP-10" value="Download&lt;br&gt;modules" style="edgeLabel;html=1;align=center;verticalAlign=middle;resizable=0;points=[];fontColor=default;labelBackgroundColor=default;" vertex="1" connectable="0" parent="Ek67fh9RwJqJuXTqJOCP-9">
          <mxGeometry x="-0.25" relative="1" as="geometry">
            <mxPoint x="-7" y="-55" as="offset" />
          </mxGeometry>
        </mxCell>
        <mxCell id="Ek67fh9RwJqJuXTqJOCP-8" value="Terraform&lt;br&gt;Registry" style="ellipse;shape=cloud;whiteSpace=wrap;html=1;labelBackgroundColor=default;fillColor=#fff2cc;strokeColor=#d6b656;fontColor=default;" vertex="1" parent="Ek67fh9RwJqJuXTqJOCP-1">
          <mxGeometry x="270" y="-100" width="95" height="60" as="geometry" />
        </mxCell>
        <mxCell id="Ek67fh9RwJqJuXTqJOCP-12" value="" style="endArrow=classic;html=1;rounded=0;labelBackgroundColor=default;fontColor=default;strokeColor=default;entryX=0.815;entryY=0;entryDx=0;entryDy=0;entryPerimeter=0;" edge="1" parent="Ek67fh9RwJqJuXTqJOCP-1" target="Ek67fh9RwJqJuXTqJOCP-7">
          <mxGeometry width="50" height="50" relative="1" as="geometry">
            <mxPoint x="343" y="-50" as="sourcePoint" />
            <mxPoint x="510" y="-80" as="targetPoint" />
          </mxGeometry>
        </mxCell>
        <mxCell id="Ek67fh9RwJqJuXTqJOCP-13" value="Resource group" style="fillColor=none;strokeColor=#5A6C86;dashed=1;verticalAlign=top;fontStyle=0;fontColor=#5A6C86;labelBackgroundColor=default;" vertex="1" parent="Ek67fh9RwJqJuXTqJOCP-1">
          <mxGeometry x="120" y="310" width="240" height="430" as="geometry" />
        </mxCell>
        <mxCell id="Ek67fh9RwJqJuXTqJOCP-14" value="Storage Account" style="points=[[0,0],[0.25,0],[0.5,0],[0.75,0],[1,0],[1,0.25],[1,0.5],[1,0.75],[1,1],[0.75,1],[0.5,1],[0.25,1],[0,1],[0,0.75],[0,0.5],[0,0.25]];outlineConnect=0;gradientColor=none;html=1;whiteSpace=wrap;fontSize=12;fontStyle=0;shape=mxgraph.aws4.group;grIcon=mxgraph.aws4.group_on_premise;strokeColor=#5A6C86;fillColor=none;verticalAlign=top;align=left;spacingLeft=30;fontColor=#5A6C86;dashed=0;labelBackgroundColor=default;" vertex="1" parent="Ek67fh9RwJqJuXTqJOCP-1">
          <mxGeometry x="140" y="350" width="200" height="360" as="geometry" />
        </mxCell>
        <mxCell id="Ek67fh9RwJqJuXTqJOCP-16" value="Container&lt;br&gt;Blob Storage" style="sketch=0;aspect=fixed;html=1;points=[];align=center;image;fontSize=12;image=img/lib/mscae/BlobBlock.svg;labelBackgroundColor=default;fontColor=default;strokeColor=default;fillColor=default;" vertex="1" parent="Ek67fh9RwJqJuXTqJOCP-1">
          <mxGeometry x="160" y="505" width="50" height="42" as="geometry" />
        </mxCell>
        <mxCell id="Ek67fh9RwJqJuXTqJOCP-18" value="Terraform&lt;br&gt;State File&lt;br&gt;ClientA" style="verticalLabelPosition=bottom;html=1;verticalAlign=top;align=center;strokeColor=none;fillColor=#00BEF2;shape=mxgraph.azure.storage_blob;labelBackgroundColor=default;fontColor=default;" vertex="1" parent="Ek67fh9RwJqJuXTqJOCP-1">
          <mxGeometry x="265" y="400" width="40" height="35" as="geometry" />
        </mxCell>
        <mxCell id="Ek67fh9RwJqJuXTqJOCP-19" value="Terraform&lt;br&gt;State File&lt;br&gt;ClientB" style="verticalLabelPosition=bottom;html=1;verticalAlign=top;align=center;strokeColor=none;fillColor=#00BEF2;shape=mxgraph.azure.storage_blob;labelBackgroundColor=default;fontColor=default;" vertex="1" parent="Ek67fh9RwJqJuXTqJOCP-1">
          <mxGeometry x="265" y="505" width="40" height="30" as="geometry" />
        </mxCell>
        <mxCell id="Ek67fh9RwJqJuXTqJOCP-20" value="Terraform&lt;br&gt;State File&lt;br&gt;ClientC" style="verticalLabelPosition=bottom;html=1;verticalAlign=top;align=center;strokeColor=none;fillColor=#00BEF2;shape=mxgraph.azure.storage_blob;labelBackgroundColor=default;fontColor=default;" vertex="1" parent="Ek67fh9RwJqJuXTqJOCP-1">
          <mxGeometry x="265" y="604" width="40" height="30" as="geometry" />
        </mxCell>
        <mxCell id="Ek67fh9RwJqJuXTqJOCP-21" value="" style="endArrow=classic;html=1;rounded=0;labelBackgroundColor=default;fontColor=default;strokeColor=default;exitX=1;exitY=0.357;exitDx=0;exitDy=0;exitPerimeter=0;entryX=0;entryY=0.5;entryDx=0;entryDy=0;entryPerimeter=0;" edge="1" parent="Ek67fh9RwJqJuXTqJOCP-1" source="Ek67fh9RwJqJuXTqJOCP-16" target="Ek67fh9RwJqJuXTqJOCP-18">
          <mxGeometry width="50" height="50" relative="1" as="geometry">
            <mxPoint x="180" y="450" as="sourcePoint" />
            <mxPoint x="230" y="400" as="targetPoint" />
          </mxGeometry>
        </mxCell>
        <mxCell id="Ek67fh9RwJqJuXTqJOCP-22" value="" style="endArrow=classic;html=1;rounded=0;labelBackgroundColor=default;fontColor=default;strokeColor=default;entryX=0;entryY=0.5;entryDx=0;entryDy=0;entryPerimeter=0;" edge="1" parent="Ek67fh9RwJqJuXTqJOCP-1" target="Ek67fh9RwJqJuXTqJOCP-19">
          <mxGeometry width="50" height="50" relative="1" as="geometry">
            <mxPoint x="210" y="520" as="sourcePoint" />
            <mxPoint x="275" y="427.5" as="targetPoint" />
          </mxGeometry>
        </mxCell>
        <mxCell id="Ek67fh9RwJqJuXTqJOCP-23" value="" style="endArrow=classic;html=1;rounded=0;labelBackgroundColor=default;fontColor=default;strokeColor=default;exitX=1;exitY=0.357;exitDx=0;exitDy=0;exitPerimeter=0;entryX=0;entryY=0.5;entryDx=0;entryDy=0;entryPerimeter=0;" edge="1" parent="Ek67fh9RwJqJuXTqJOCP-1" source="Ek67fh9RwJqJuXTqJOCP-16" target="Ek67fh9RwJqJuXTqJOCP-20">
          <mxGeometry width="50" height="50" relative="1" as="geometry">
            <mxPoint x="200" y="670" as="sourcePoint" />
            <mxPoint x="250" y="620" as="targetPoint" />
          </mxGeometry>
        </mxCell>
        <mxCell id="Ek67fh9RwJqJuXTqJOCP-27" value="" style="aspect=fixed;html=1;points=[];align=center;image;fontSize=12;image=img/lib/azure2/networking/Virtual_Networks.svg;labelBackgroundColor=default;fontColor=default;strokeColor=default;fillColor=default;" vertex="1" parent="Ek67fh9RwJqJuXTqJOCP-1">
          <mxGeometry x="463" y="59.5" width="51.09" height="30.5" as="geometry" />
        </mxCell>
        <mxCell id="Ek67fh9RwJqJuXTqJOCP-28" value="Network security group" style="points=[[0,0],[0.25,0],[0.5,0],[0.75,0],[1,0],[1,0.25],[1,0.5],[1,0.75],[1,1],[0.75,1],[0.5,1],[0.25,1],[0,1],[0,0.75],[0,0.5],[0,0.25]];outlineConnect=0;gradientColor=none;html=1;whiteSpace=wrap;fontSize=12;fontStyle=0;shape=mxgraph.aws4.group;grIcon=mxgraph.aws4.group_security_group;grStroke=0;strokeColor=#147EBA;fillColor=#E6F2F8;verticalAlign=top;align=left;spacingLeft=30;fontColor=#147EBA;dashed=0;labelBackgroundColor=default;" vertex="1" parent="Ek67fh9RwJqJuXTqJOCP-1">
          <mxGeometry x="470" y="110" width="390" height="610" as="geometry" />
        </mxCell>
        <mxCell id="Ek67fh9RwJqJuXTqJOCP-29" value="" style="sketch=0;aspect=fixed;html=1;points=[];align=center;image;fontSize=12;image=img/lib/mscae/Network_Security_Groups_Classic.svg;labelBackgroundColor=default;fontColor=default;strokeColor=default;fillColor=default;" vertex="1" parent="Ek67fh9RwJqJuXTqJOCP-1">
          <mxGeometry x="823" y="670" width="37" height="50" as="geometry" />
        </mxCell>
        <mxCell id="Ek67fh9RwJqJuXTqJOCP-53" style="edgeStyle=orthogonalEdgeStyle;rounded=0;orthogonalLoop=1;jettySize=auto;html=1;entryX=0.985;entryY=0.441;entryDx=0;entryDy=0;entryPerimeter=0;labelBackgroundColor=default;fontColor=default;strokeColor=default;" edge="1" parent="Ek67fh9RwJqJuXTqJOCP-1" source="Ek67fh9RwJqJuXTqJOCP-30" target="Ek67fh9RwJqJuXTqJOCP-52">
          <mxGeometry relative="1" as="geometry" />
        </mxCell>
        <mxCell id="Ek67fh9RwJqJuXTqJOCP-30" value="AKS Cluster" style="aspect=fixed;html=1;points=[];align=center;image;fontSize=12;image=img/lib/azure2/containers/Kubernetes_Services.svg;labelBackgroundColor=default;fontColor=default;strokeColor=default;fillColor=default;" vertex="1" parent="Ek67fh9RwJqJuXTqJOCP-1">
          <mxGeometry x="644" y="160" width="68" height="60" as="geometry" />
        </mxCell>
        <mxCell id="Ek67fh9RwJqJuXTqJOCP-37" style="edgeStyle=orthogonalEdgeStyle;rounded=0;orthogonalLoop=1;jettySize=auto;html=1;labelBackgroundColor=default;fontColor=default;strokeColor=default;" edge="1" parent="Ek67fh9RwJqJuXTqJOCP-1" target="Ek67fh9RwJqJuXTqJOCP-32">
          <mxGeometry relative="1" as="geometry">
            <mxPoint x="562" y="290" as="sourcePoint" />
            <Array as="points">
              <mxPoint x="562" y="270" />
              <mxPoint x="760" y="270" />
              <mxPoint x="760" y="80" />
            </Array>
          </mxGeometry>
        </mxCell>
        <mxCell id="Ek67fh9RwJqJuXTqJOCP-32" value="Containers&lt;br&gt;Registry" style="aspect=fixed;html=1;points=[];align=center;image;fontSize=12;image=img/lib/azure2/containers/Container_Registries.svg;labelBackgroundColor=default;fontColor=default;strokeColor=default;fillColor=default;" vertex="1" parent="Ek67fh9RwJqJuXTqJOCP-1">
          <mxGeometry x="980" y="49" width="68" height="61" as="geometry" />
        </mxCell>
        <mxCell id="Ek67fh9RwJqJuXTqJOCP-36" style="edgeStyle=orthogonalEdgeStyle;rounded=0;orthogonalLoop=1;jettySize=auto;html=1;labelBackgroundColor=default;fontColor=default;strokeColor=default;" edge="1" parent="Ek67fh9RwJqJuXTqJOCP-1" target="Ek67fh9RwJqJuXTqJOCP-32">
          <mxGeometry relative="1" as="geometry">
            <mxPoint x="663" y="290" as="sourcePoint" />
            <Array as="points">
              <mxPoint x="663" y="270" />
              <mxPoint x="760" y="270" />
              <mxPoint x="760" y="80" />
            </Array>
          </mxGeometry>
        </mxCell>
        <mxCell id="Ek67fh9RwJqJuXTqJOCP-35" style="edgeStyle=orthogonalEdgeStyle;rounded=0;orthogonalLoop=1;jettySize=auto;html=1;labelBackgroundColor=default;fontColor=default;strokeColor=default;" edge="1" parent="Ek67fh9RwJqJuXTqJOCP-1" target="Ek67fh9RwJqJuXTqJOCP-32">
          <mxGeometry relative="1" as="geometry">
            <mxPoint x="762" y="290" as="sourcePoint" />
            <Array as="points">
              <mxPoint x="762" y="80" />
            </Array>
          </mxGeometry>
        </mxCell>
        <mxCell id="Ek67fh9RwJqJuXTqJOCP-40" value="Namespace1" style="fillColor=none;strokeColor=#5A6C86;dashed=1;verticalAlign=top;fontStyle=0;fontColor=#5A6C86;labelBackgroundColor=default;" vertex="1" parent="Ek67fh9RwJqJuXTqJOCP-1">
          <mxGeometry x="490" y="410" width="170" height="180" as="geometry" />
        </mxCell>
        <mxCell id="Ek67fh9RwJqJuXTqJOCP-41" value="Namespace2" style="fillColor=none;strokeColor=#5A6C86;dashed=1;verticalAlign=top;fontStyle=0;fontColor=#5A6C86;labelBackgroundColor=default;" vertex="1" parent="Ek67fh9RwJqJuXTqJOCP-1">
          <mxGeometry x="680" y="410" width="170" height="180" as="geometry" />
        </mxCell>
        <mxCell id="Ek67fh9RwJqJuXTqJOCP-42" value="Pod" style="sketch=0;html=1;dashed=0;whitespace=wrap;fillColor=#2875E2;strokeColor=#ffffff;points=[[0.005,0.63,0],[0.1,0.2,0],[0.9,0.2,0],[0.5,0,0],[0.995,0.63,0],[0.72,0.99,0],[0.5,1,0],[0.28,0.99,0]];shape=mxgraph.kubernetes.icon;prIcon=pod;labelBackgroundColor=default;fontColor=default;" vertex="1" parent="Ek67fh9RwJqJuXTqJOCP-1">
          <mxGeometry x="510" y="457" width="50" height="48" as="geometry" />
        </mxCell>
        <mxCell id="Ek67fh9RwJqJuXTqJOCP-43" value="Pod" style="sketch=0;html=1;dashed=0;whitespace=wrap;fillColor=#2875E2;strokeColor=#ffffff;points=[[0.005,0.63,0],[0.1,0.2,0],[0.9,0.2,0],[0.5,0,0],[0.995,0.63,0],[0.72,0.99,0],[0.5,1,0],[0.28,0.99,0]];shape=mxgraph.kubernetes.icon;prIcon=pod;labelBackgroundColor=default;fontColor=default;" vertex="1" parent="Ek67fh9RwJqJuXTqJOCP-1">
          <mxGeometry x="510" y="520" width="50" height="48" as="geometry" />
        </mxCell>
        <mxCell id="Ek67fh9RwJqJuXTqJOCP-45" value="Pod" style="sketch=0;html=1;dashed=0;whitespace=wrap;fillColor=#2875E2;strokeColor=#ffffff;points=[[0.005,0.63,0],[0.1,0.2,0],[0.9,0.2,0],[0.5,0,0],[0.995,0.63,0],[0.72,0.99,0],[0.5,1,0],[0.28,0.99,0]];shape=mxgraph.kubernetes.icon;prIcon=pod;labelBackgroundColor=default;fontColor=default;" vertex="1" parent="Ek67fh9RwJqJuXTqJOCP-1">
          <mxGeometry x="594" y="457" width="50" height="48" as="geometry" />
        </mxCell>
        <mxCell id="Ek67fh9RwJqJuXTqJOCP-46" value="Pod" style="sketch=0;html=1;dashed=0;whitespace=wrap;fillColor=#2875E2;strokeColor=#ffffff;points=[[0.005,0.63,0],[0.1,0.2,0],[0.9,0.2,0],[0.5,0,0],[0.995,0.63,0],[0.72,0.99,0],[0.5,1,0],[0.28,0.99,0]];shape=mxgraph.kubernetes.icon;prIcon=pod;labelBackgroundColor=default;fontColor=default;" vertex="1" parent="Ek67fh9RwJqJuXTqJOCP-1">
          <mxGeometry x="594" y="520" width="50" height="48" as="geometry" />
        </mxCell>
        <mxCell id="Ek67fh9RwJqJuXTqJOCP-48" value="Pod" style="sketch=0;html=1;dashed=0;whitespace=wrap;fillColor=#2875E2;strokeColor=#ffffff;points=[[0.005,0.63,0],[0.1,0.2,0],[0.9,0.2,0],[0.5,0,0],[0.995,0.63,0],[0.72,0.99,0],[0.5,1,0],[0.28,0.99,0]];shape=mxgraph.kubernetes.icon;prIcon=pod;labelBackgroundColor=default;fontColor=default;" vertex="1" parent="Ek67fh9RwJqJuXTqJOCP-1">
          <mxGeometry x="699" y="457" width="50" height="48" as="geometry" />
        </mxCell>
        <mxCell id="Ek67fh9RwJqJuXTqJOCP-49" value="Pod" style="sketch=0;html=1;dashed=0;whitespace=wrap;fillColor=#2875E2;strokeColor=#ffffff;points=[[0.005,0.63,0],[0.1,0.2,0],[0.9,0.2,0],[0.5,0,0],[0.995,0.63,0],[0.72,0.99,0],[0.5,1,0],[0.28,0.99,0]];shape=mxgraph.kubernetes.icon;prIcon=pod;labelBackgroundColor=default;fontColor=default;" vertex="1" parent="Ek67fh9RwJqJuXTqJOCP-1">
          <mxGeometry x="699" y="520" width="50" height="48" as="geometry" />
        </mxCell>
        <mxCell id="Ek67fh9RwJqJuXTqJOCP-50" value="Pod" style="sketch=0;html=1;dashed=0;whitespace=wrap;fillColor=#2875E2;strokeColor=#ffffff;points=[[0.005,0.63,0],[0.1,0.2,0],[0.9,0.2,0],[0.5,0,0],[0.995,0.63,0],[0.72,0.99,0],[0.5,1,0],[0.28,0.99,0]];shape=mxgraph.kubernetes.icon;prIcon=pod;labelBackgroundColor=default;fontColor=default;" vertex="1" parent="Ek67fh9RwJqJuXTqJOCP-1">
          <mxGeometry x="773" y="457" width="50" height="48" as="geometry" />
        </mxCell>
        <mxCell id="Ek67fh9RwJqJuXTqJOCP-52" value="Availabiity&lt;br&gt;Sets" style="aspect=fixed;html=1;points=[];align=center;image;fontSize=12;image=img/lib/azure2/compute/Availability_Sets.svg;labelBackgroundColor=default;fontColor=default;strokeColor=default;fillColor=default;" vertex="1" parent="Ek67fh9RwJqJuXTqJOCP-1">
          <mxGeometry x="492" y="160" width="68" height="68" as="geometry" />
        </mxCell>
        <mxCell id="Ek67fh9RwJqJuXTqJOCP-54" value="WorkerA" style="aspect=fixed;html=1;points=[];align=center;image;fontSize=12;image=img/lib/azure2/compute/Virtual_Machine.svg;labelBackgroundColor=default;fontColor=default;strokeColor=default;fillColor=default;" vertex="1" parent="Ek67fh9RwJqJuXTqJOCP-1">
          <mxGeometry x="530" y="286" width="69" height="64" as="geometry" />
        </mxCell>
        <mxCell id="Ek67fh9RwJqJuXTqJOCP-55" value="WorkerB" style="aspect=fixed;html=1;points=[];align=center;image;fontSize=12;image=img/lib/azure2/compute/Virtual_Machine.svg;labelBackgroundColor=default;fontColor=default;strokeColor=default;fillColor=default;" vertex="1" parent="Ek67fh9RwJqJuXTqJOCP-1">
          <mxGeometry x="630" y="286" width="69" height="64" as="geometry" />
        </mxCell>
        <mxCell id="Ek67fh9RwJqJuXTqJOCP-56" value="WorkerC" style="aspect=fixed;html=1;points=[];align=center;image;fontSize=12;image=img/lib/azure2/compute/Virtual_Machine.svg;labelBackgroundColor=default;fontColor=default;strokeColor=default;fillColor=default;" vertex="1" parent="Ek67fh9RwJqJuXTqJOCP-1">
          <mxGeometry x="730" y="286" width="69" height="64" as="geometry" />
        </mxCell>
        <mxCell id="Ek67fh9RwJqJuXTqJOCP-57" value="" style="endArrow=classic;html=1;rounded=0;labelBackgroundColor=default;fontColor=default;strokeColor=default;exitX=0.985;exitY=0.735;exitDx=0;exitDy=0;exitPerimeter=0;entryX=0.406;entryY=0;entryDx=0;entryDy=0;entryPerimeter=0;dashed=1;" edge="1" parent="Ek67fh9RwJqJuXTqJOCP-1" source="Ek67fh9RwJqJuXTqJOCP-52" target="Ek67fh9RwJqJuXTqJOCP-54">
          <mxGeometry width="50" height="50" relative="1" as="geometry">
            <mxPoint x="600" y="290" as="sourcePoint" />
            <mxPoint x="650" y="240" as="targetPoint" />
          </mxGeometry>
        </mxCell>
        <mxCell id="Ek67fh9RwJqJuXTqJOCP-58" value="" style="endArrow=classic;html=1;rounded=0;labelBackgroundColor=default;fontColor=default;strokeColor=default;entryX=0.029;entryY=0;entryDx=0;entryDy=0;entryPerimeter=0;exitX=0.985;exitY=0.706;exitDx=0;exitDy=0;exitPerimeter=0;dashed=1;" edge="1" parent="Ek67fh9RwJqJuXTqJOCP-1" source="Ek67fh9RwJqJuXTqJOCP-52" target="Ek67fh9RwJqJuXTqJOCP-55">
          <mxGeometry width="50" height="50" relative="1" as="geometry">
            <mxPoint x="568.98" y="219.98000000000002" as="sourcePoint" />
            <mxPoint x="568.0139999999999" y="296" as="targetPoint" />
          </mxGeometry>
        </mxCell>
        <mxCell id="Ek67fh9RwJqJuXTqJOCP-59" value="" style="endArrow=classic;html=1;rounded=0;labelBackgroundColor=default;fontColor=default;strokeColor=default;entryX=0.029;entryY=0;entryDx=0;entryDy=0;entryPerimeter=0;exitX=1;exitY=0.588;exitDx=0;exitDy=0;exitPerimeter=0;dashed=1;" edge="1" parent="Ek67fh9RwJqJuXTqJOCP-1" source="Ek67fh9RwJqJuXTqJOCP-52" target="Ek67fh9RwJqJuXTqJOCP-56">
          <mxGeometry width="50" height="50" relative="1" as="geometry">
            <mxPoint x="568.98" y="218.00800000000004" as="sourcePoint" />
            <mxPoint x="642.001" y="296" as="targetPoint" />
          </mxGeometry>
        </mxCell>
        <mxCell id="Ek67fh9RwJqJuXTqJOCP-60" value="" style="aspect=fixed;html=1;points=[];align=center;image;fontSize=12;image=img/lib/azure2/compute/Disks.svg;labelBackgroundColor=default;fontColor=default;strokeColor=default;fillColor=default;" vertex="1" parent="Ek67fh9RwJqJuXTqJOCP-1">
          <mxGeometry x="560" y="604" width="56.99999999999999" height="56.00000000000001" as="geometry" />
        </mxCell>
        <mxCell id="Ek67fh9RwJqJuXTqJOCP-61" value="" style="aspect=fixed;html=1;points=[];align=center;image;fontSize=12;image=img/lib/azure2/compute/Disks.svg;labelBackgroundColor=default;fontColor=default;strokeColor=default;fillColor=default;" vertex="1" parent="Ek67fh9RwJqJuXTqJOCP-1">
          <mxGeometry x="630" y="604" width="56.99999999999999" height="56.00000000000001" as="geometry" />
        </mxCell>
        <mxCell id="Ek67fh9RwJqJuXTqJOCP-62" value="" style="aspect=fixed;html=1;points=[];align=center;image;fontSize=12;image=img/lib/azure2/compute/Disks.svg;labelBackgroundColor=default;fontColor=default;strokeColor=default;fillColor=default;" vertex="1" parent="Ek67fh9RwJqJuXTqJOCP-1">
          <mxGeometry x="699" y="604" width="56.99999999999999" height="56.00000000000001" as="geometry" />
        </mxCell>
        <mxCell id="Ek67fh9RwJqJuXTqJOCP-63" value="Storage disks" style="text;html=1;strokeColor=#82b366;fillColor=#d5e8d4;align=center;verticalAlign=middle;whiteSpace=wrap;rounded=0;labelBackgroundColor=default;fontColor=default;" vertex="1" parent="Ek67fh9RwJqJuXTqJOCP-1">
          <mxGeometry x="560" y="670" width="200" height="30" as="geometry" />
        </mxCell>
        <mxCell id="Ek67fh9RwJqJuXTqJOCP-64" value="Resource group" style="fillColor=none;strokeColor=#5A6C86;dashed=1;verticalAlign=top;fontStyle=0;fontColor=#5A6C86;labelBackgroundColor=default;" vertex="1" parent="Ek67fh9RwJqJuXTqJOCP-1">
          <mxGeometry x="440" y="30" width="520" height="710" as="geometry" />
        </mxCell>
        <mxCell id="Ek67fh9RwJqJuXTqJOCP-66" style="edgeStyle=orthogonalEdgeStyle;rounded=0;orthogonalLoop=1;jettySize=auto;html=1;entryX=0.98;entryY=0.48;entryDx=0;entryDy=0;entryPerimeter=0;labelBackgroundColor=default;fontColor=default;strokeColor=default;" edge="1" parent="Ek67fh9RwJqJuXTqJOCP-1" source="Ek67fh9RwJqJuXTqJOCP-65">
          <mxGeometry relative="1" as="geometry">
            <mxPoint x="939" y="376" as="targetPoint" />
          </mxGeometry>
        </mxCell>
        <mxCell id="Ek67fh9RwJqJuXTqJOCP-65" value="Public IP&lt;br&gt;for&lt;br&gt;Ingress Controller" style="aspect=fixed;html=1;points=[];align=center;image;fontSize=12;image=img/lib/azure2/networking/Public_IP_Addresses.svg;labelBackgroundColor=default;fontColor=default;strokeColor=default;fillColor=default;" vertex="1" parent="Ek67fh9RwJqJuXTqJOCP-1">
          <mxGeometry x="1020" y="350" width="65" height="52" as="geometry" />
        </mxCell>
        <mxCell id="Ek67fh9RwJqJuXTqJOCP-68" style="edgeStyle=orthogonalEdgeStyle;rounded=0;orthogonalLoop=1;jettySize=auto;html=1;labelBackgroundColor=default;fontColor=default;strokeColor=default;" edge="1" parent="Ek67fh9RwJqJuXTqJOCP-1" source="Ek67fh9RwJqJuXTqJOCP-67" target="Ek67fh9RwJqJuXTqJOCP-65">
          <mxGeometry relative="1" as="geometry" />
        </mxCell>
        <mxCell id="Ek67fh9RwJqJuXTqJOCP-67" value="User" style="verticalLabelPosition=bottom;html=1;verticalAlign=top;align=center;strokeColor=none;fillColor=#00BEF2;shape=mxgraph.azure.user;labelBackgroundColor=default;fontColor=default;" vertex="1" parent="Ek67fh9RwJqJuXTqJOCP-1">
          <mxGeometry x="1290" y="351" width="47.5" height="50" as="geometry" />
        </mxCell>
        <mxCell id="Ek67fh9RwJqJuXTqJOCP-73" style="edgeStyle=orthogonalEdgeStyle;rounded=0;orthogonalLoop=1;jettySize=auto;html=1;entryX=0;entryY=0.5;entryDx=0;entryDy=0;labelBackgroundColor=default;fontColor=default;strokeColor=default;" edge="1" parent="Ek67fh9RwJqJuXTqJOCP-1" source="Ek67fh9RwJqJuXTqJOCP-70" target="Ek67fh9RwJqJuXTqJOCP-72">
          <mxGeometry relative="1" as="geometry" />
        </mxCell>
        <mxCell id="Ek67fh9RwJqJuXTqJOCP-70" value="Devops" style="sketch=0;aspect=fixed;pointerEvents=1;shadow=0;dashed=0;html=1;strokeColor=none;labelPosition=center;verticalLabelPosition=bottom;verticalAlign=top;align=center;shape=mxgraph.mscae.enterprise.user_permissions;fillColor=#0078D7;labelBackgroundColor=default;fontColor=default;" vertex="1" parent="Ek67fh9RwJqJuXTqJOCP-1">
          <mxGeometry x="-220" y="160" width="47" height="50" as="geometry" />
        </mxCell>
        <mxCell id="Ek67fh9RwJqJuXTqJOCP-74" style="edgeStyle=orthogonalEdgeStyle;rounded=0;orthogonalLoop=1;jettySize=auto;html=1;entryX=0;entryY=0.391;entryDx=0;entryDy=0;entryPerimeter=0;labelBackgroundColor=default;fontColor=default;strokeColor=default;" edge="1" parent="Ek67fh9RwJqJuXTqJOCP-1" source="Ek67fh9RwJqJuXTqJOCP-72" target="Ek67fh9RwJqJuXTqJOCP-5">
          <mxGeometry relative="1" as="geometry" />
        </mxCell>
        <mxCell id="Ek67fh9RwJqJuXTqJOCP-72" value="VPN&lt;br&gt;Gateway" style="aspect=fixed;perimeter=ellipsePerimeter;html=1;align=center;shadow=0;dashed=0;fontColor=#4277BB;labelBackgroundColor=default;fontSize=12;spacingTop=3;image;image=img/lib/ibm/vpc/VPNConnection.svg;strokeColor=default;fillColor=default;" vertex="1" parent="Ek67fh9RwJqJuXTqJOCP-1">
          <mxGeometry x="-80" y="155" width="60" height="60" as="geometry" />
        </mxCell>
        <mxCell id="Ek67fh9RwJqJuXTqJOCP-77" value="AKS&lt;br&gt;Load Balancer" style="sketch=0;aspect=fixed;html=1;points=[];align=center;image;fontSize=12;image=img/lib/mscae/Load_Balancer_feature.svg;labelBackgroundColor=default;fontColor=default;strokeColor=default;fillColor=default;" vertex="1" parent="Ek67fh9RwJqJuXTqJOCP-1">
          <mxGeometry x="890" y="352" width="50" height="50" as="geometry" />
        </mxCell>
      </root>
    </mxGraphModel>
  </diagram>
</mxfile>
